<?xml version="1.0" encoding="UTF-8" standalone="no"?>
<!-- Generator: Adobe Illustrator 18.1.1, SVG Export Plug-In . SVG Version: 6.00 Build 0)  -->

<svg
   xmlns:dc="http://purl.org/dc/elements/1.1/"
   xmlns:cc="http://creativecommons.org/ns#"
   xmlns:rdf="http://www.w3.org/1999/02/22-rdf-syntax-ns#"
   xmlns:svg="http://www.w3.org/2000/svg"
   xmlns="http://www.w3.org/2000/svg"
   xmlns:xlink="http://www.w3.org/1999/xlink"
   xmlns:sodipodi="http://sodipodi.sourceforge.net/DTD/sodipodi-0.dtd"
   xmlns:inkscape="http://www.inkscape.org/namespaces/inkscape"
   version="1.1"
   x="0px"
   y="0px"
   viewBox="0 0 512 512"
   enable-background="new 0 0 512 512"
   xml:space="preserve"
   id="svg32"
   sodipodi:docname="Compat.svg"
   inkscape:version="0.92.4 (5da689c313, 2019-01-14)"><metadata
   id="metadata38"><rdf:RDF><cc:Work
       rdf:about=""><dc:format>image/svg+xml</dc:format><dc:type
         rdf:resource="http://purl.org/dc/dcmitype/StillImage" /><dc:title></dc:title></cc:Work></rdf:RDF></metadata><defs
   id="defs36"><linearGradient
     inkscape:collect="always"
     id="linearGradient4553"><stop
       style="stop-color:#000000;stop-opacity:1;"
       offset="0"
       id="stop4549" /><stop
       style="stop-color:#000000;stop-opacity:0;"
       offset="1"
       id="stop4551" /></linearGradient><radialGradient
     inkscape:collect="always"
     xlink:href="#linearGradient4553"
     id="radialGradient4557"
     cx="251.569"
     cy="429.28"
     fx="251.569"
     fy="429.28"
     r="146.783"
     gradientTransform="matrix(1,0,0,0.52578296,0,203.57189)"
     gradientUnits="userSpaceOnUse" /></defs><sodipodi:namedview
   pagecolor="#ffffff"
   bordercolor="#666666"
   borderopacity="1"
   objecttolerance="10"
   gridtolerance="10"
   guidetolerance="10"
   inkscape:pageopacity="0"
   inkscape:pageshadow="2"
   inkscape:window-width="2855"
   inkscape:window-height="1632"
   id="namedview34"
   showgrid="false"
   inkscape:zoom="1.3037281"
   inkscape:cx="-29.347793"
   inkscape:cy="130.85943"
   inkscape:window-x="3429"
   inkscape:window-y="5012"
   inkscape:window-maximized="0"
   inkscape:current-layer="svg32" />
<g
   id="Layer_2"
   style="fill-opacity:1;fill:#9c3eff">
	<path
   d="M 390.289,429.373 C 375.641,401.314 338.2,352.104 255.742,352.104 l -4.173,32.523 -4.173,-32.523 c -82.458,0 -119.899,49.21 -134.547,77.269 -5.219,5.959 -8.063,12.356 -8.063,19.017 0,32.069 65.717,58.066 146.783,58.066 81.066,0 146.783,-25.997 146.783,-58.066 0,-6.661 -2.844,-13.059 -8.063,-19.017 z"
   id="path2"
   inkscape:connector-curvature="0"
   style="fill:#9c3eff;fill-opacity:1" />
</g>
<g
   id="Layer_3"
   style="fill:#5231c8;fill-opacity:1">
	<circle
   cx="246.726"
   cy="220.228"
   r="213.282"
   id="circle5"
   style="fill:#5231c8;fill-opacity:1" />
</g>
<g
   id="Layer_4"
   style="fill:#706da9;fill-opacity:1;fill-rule:nonzero">
	<path
   d="M 451.466,160.323 C 425.577,71.695 343.718,6.946 246.726,6.946 c -14.126,0 -27.927,1.387 -41.286,4.008 -54.97,32.524 -85.762,94.647 -78.769,157.791 1.369,12.362 -5.962,23.913 -17.694,28.042 -0.073,0.026 -0.147,0.052 -0.22,0.078 -36.338,12.887 -60.246,45.147 -64.241,81.055 -0.229,2.057 -0.736,3.996 -1.462,5.801 18.915,60.741 64.26,109.82 122.573,133.814 -0.95,-4.32 -2.168,-8.629 -3.685,-12.905 -0.304,-0.857 -0.618,-1.708 -0.942,-2.553 -3.265,-8.522 1.234,-17.937 9.926,-20.718 0.972,-0.311 1.942,-0.638 2.91,-0.981 24.41,-8.657 43.211,-26.057 54.135,-47.432 7.375,-14.43 23.02,-22.745 39.083,-20.597 35.831,4.791 74.037,-2.289 108.963,-23.95 44.99,-27.903 72.95,-76.173 75.449,-128.076 z"
   id="path8"
   inkscape:connector-curvature="0"
   style="fill:#706da9;fill-opacity:1;fill-rule:nonzero" />
</g>
<g
   id="Layer_5"
   style="fill:#ffa6b3;fill-opacity:0.68181819">
	<circle
   cx="212.74001"
   cy="193.60001"
   r="15.414"
   id="circle11"
   style="fill:#ffa6b3;fill-opacity:0.68181819" />
</g>
<g
   id="Layer_6">
	<path
   fill="#725FAF"
   d="M413.766,111.027c0,8.513-6.901,15.414-15.414,15.414s-15.414-6.901-15.414-15.414   s6.901-15.414,15.414-15.414S413.766,102.514,413.766,111.027z M386.813,192.226c-15.465,0-28.002,12.537-28.002,28.002   s12.537,28.002,28.002,28.002c15.465,0,28.002-12.537,28.002-28.002S402.277,192.226,386.813,192.226z M225.01,237.994   c-11.121,0-20.136,9.015-20.136,20.136c0,11.121,9.015,20.136,20.136,20.136c11.121,0,20.136-9.015,20.136-20.136   C245.146,247.009,236.13,237.994,225.01,237.994z"
   id="path14" />
</g>
<g
   id="Layer_7">
	<circle
   cx="200.47"
   cy="99.084"
   r="8.467"
   id="circle17"
   style="fill:#d1cfc3" />
</g>
<g
   id="Layer_8"
   style="fill:#ffe317;fill-opacity:0.68181819">
	<path
   d="m 154.227,294.784 c 0,11.121 -9.015,20.136 -20.136,20.136 -11.121,0 -20.136,-9.015 -20.136,-20.136 0,-11.121 9.015,-20.136 20.136,-20.136 11.121,0 20.136,9.016 20.136,20.136 z m -7.865,-91.323 c -4.676,0 -8.467,3.791 -8.467,8.467 0,4.676 3.791,8.467 8.467,8.467 4.676,0 8.467,-3.791 8.467,-8.467 0,-4.676 -3.791,-8.467 -8.467,-8.467 z m 147.829,8.468 c -4.676,0 -8.467,3.791 -8.467,8.467 0,4.676 3.791,8.467 8.467,8.467 4.676,0 8.467,-3.791 8.467,-8.467 0,-4.676 -3.791,-8.467 -8.467,-8.467 z m -19.91,149.438 c -8.946,0 -16.199,7.253 -16.199,16.199 0,8.946 7.253,16.199 16.199,16.199 8.946,0 16.199,-7.253 16.199,-16.199 0,-8.946 -7.253,-16.199 -16.199,-16.199 z"
   id="path20"
   inkscape:connector-curvature="0"
   style="fill:#ffe317;fill-opacity:0.68181819" />
</g>
<g
   id="Layer_9"
   style="fill:#53f4ff;fill-opacity:0.68181819">
	<path
   d="m 323.028,107.615 c 0,15.926 -12.911,28.837 -28.837,28.837 -15.926,0 -28.837,-12.911 -28.837,-28.837 0,-15.926 12.911,-28.837 28.837,-28.837 15.926,0 28.837,12.911 28.837,28.837 z m -1.153,216.935 c -3.931,0 -7.117,3.186 -7.117,7.117 0,3.931 3.186,7.117 7.117,7.117 3.931,0 7.117,-3.186 7.117,-7.117 0,-3.93 -3.186,-7.117 -7.117,-7.117 z"
   id="path23"
   inkscape:connector-curvature="0"
   style="fill:#53f4ff;fill-opacity:0.68181819" />
</g>
<g
   id="Layer_10">
	<path
   fill="#8280D8"
   d="M65.01,117.532c0-2.349-0.541-4.567-1.481-6.56c-4.183,6.999-7.985,14.253-11.359,21.742   C59.455,131.487,65.01,125.166,65.01,117.532z"
   id="path26" />
</g>
<g
   id="Layer_11"
   style="fill:#18b7bf;fill-opacity:0.68181819">
	<path
   d="m 404.772,363.442 c -4.86,-8.299 -13.863,-13.877 -24.175,-13.877 -15.465,0 -28.002,12.537 -28.002,28.002 0,8.702 3.97,16.477 10.197,21.613 15.499,-10.074 29.612,-22.098 41.98,-35.738 z"
   id="path29"
   inkscape:connector-curvature="0"
   style="fill:#18b7bf;fill-opacity:0.68181819" />
</g>
</svg>